<?xml version="1.0" encoding="utf-8"?>
<!-- Generator: Adobe Illustrator 24.3.0, SVG Export Plug-In . SVG Version: 6.00 Build 0)  -->
<svg version="1.1" id="Layer_1" xmlns="http://www.w3.org/2000/svg" xmlns:xlink="http://www.w3.org/1999/xlink" x="0px" y="0px"
	 viewBox="0 0 512 512" style="enable-background:new 0 0 512 512;" xml:space="preserve">
<style type="text/css">
	.st0{fill:#DF4601;}
	.st1{fill:#FFFFFF;}
</style>
<g id="XMLID_1_">
	<path id="XMLID_3_" class="st0" d="M217.68,495.38c-57.07,0-110.36-20.61-146.4-57.07C38.88,405.91,21.92,362.3,21.5,312.09
		l-16.13,2.8l-0.84-2.8c-0.42-1.96-11.78-51.33,42.49-95.08c-14.58-33.94-28.33-96.2,28.33-144.44c6.03-6.03,10.1-8.55,12.9-10.94
		c1.68-1.26,2.8-1.96,4.07-2.8c3.23-8.83,9.68-16.97,12.9-20.19c17.81-18.65,40.39-21.46,41.23-21.88c3.23-0.42,6.45-0.84,9.68-0.84
		c17.39,0,27.49,7.29,31.97,10.52c0.42,0.42,0.42,0.42,0.84,0.42c1.96,0.42,4.49,0.84,7.71,0.84s7.71,0.42,13.32,0.84
		c31.97,4.07,59.04,19.07,80.91,43.61c7.29-0.84,36.46-4.91,50.9-8.13c7.29-1.68,15-3.23,22.3-4.91c35.62-7.71,69.13-15,93.4-15
		c3.65,0,6.87,0,9.68,0.42h0.42c17.39,3.23,30.71,12.48,36.46,26.22c12.2,29.17,4.49,51.75-26.22,76.43
		c-36.74,29.59-89.33,44.87-119.34,51.75c0.42,2.38,1.26,6.87,3.23,14.16c7.29-0.84,15-0.84,22.3-0.84
		c59.88,0,98.3,21.88,100.69,43.33c0.42,7.29-4.91,15.71-17.39,19.35c-53.85,14.16-64.65,40.39-78.81,101.95
		c-8.55,36.46-29.87,66.75-63.1,87.79C295.65,484.86,257.23,495.38,217.68,495.38"/>
	<path id="XMLID_6_" class="st1" d="M156.12,19.43c17.81,0,27.91,8.55,31.55,10.94c4.91,1.68,10.1,0.42,21.88,1.96
		c20.19,2.8,52.17,11.36,80.07,44.03c0,0,36.04-4.91,53.01-8.13c42.91-8.83,86.1-19.35,114.85-19.35c3.23,0,6.45,0,9.26,0.42
		c18.23,3.23,29.59,13.32,33.94,24.68c12.48,29.87,2.38,50.62-25.1,72.78c-34.36,27.49-84.56,43.61-120.46,52.17
		c0,0,0.42,5.61,4.49,19.77c8.55-0.84,16.55-1.26,24.26-1.26c58.2,0,95.5,21.03,97.46,40.39c0.42,5.61-4.07,12.9-15.43,16.13
		c-55.39,14.58-67.17,42.49-81.34,104.33c-17.39,76.01-91.01,114.85-167.44,114.85c-95.08,0-193.66-59.88-193.38-183.56l-16.97,2.8
		c0,0-12.2-50.2,43.33-93.4c-9.96-22.44-35.06-90.31,26.36-142.48c9.68-9.26,13.32-10.52,17.81-14.16
		c2.8-8.55,8.83-16.55,12.48-19.77c17.39-17.95,39.27-20.75,39.27-20.75C150.09,19.85,153.31,19.43,156.12,19.43 M156.12,13.4
		c-3.23,0-6.87,0.42-10.1,0.84c-1.96,0.42-24.68,3.65-42.91,22.72c-3.23,3.23-9.68,11.36-13.32,20.61
		c-0.84,0.84-1.96,1.68-3.23,2.38c-3.23,1.96-6.87,4.91-13.32,10.94c-27.91,23.42-42.07,52.59-42.07,86.94
		c0,18.65,4.07,38.42,12.2,58.62c-27.49,22.58-37.72,46.42-41.23,63.39c-4.07,19.07-0.84,32.81-0.84,33.09l1.26,5.61l5.61-0.84
		l10.1-1.68c1.26,49.36,18.65,92.27,50.9,124.53c36.88,37.02,91.01,58.06,148.51,58.06c40.11,0,78.81-10.52,109.24-29.87
		c33.52-21.46,55.81-52.59,64.37-89.75c14.16-61.42,24.26-86.1,76.43-99.43c14.58-4.07,20.61-14.16,19.77-22.72
		c-1.26-12.2-12.9-23.84-31.55-32.39c-13.32-6.03-37.16-13.32-72.36-13.32c-6.45,0-12.9,0.42-19.77,0.84
		c-0.84-3.65-1.68-6.03-1.96-8.55c30.71-7.29,81.34-23,117.23-51.75c31.97-25.52,40.11-49.36,27.06-80.07
		c-6.03-14.58-20.19-25.1-38.84-28.33h-0.98c-3.23-0.42-6.45-0.42-10.1-0.42c-24.68,0-58.2,7.29-93.82,15
		c-7.29,1.68-15,3.23-22.3,4.91c-13.74,2.8-40.11,6.45-48.94,7.71c-21.03-25.52-48.52-40.11-80.91-44.45
		c-5.61-0.84-10.1-0.84-13.74-0.84c-2.8,0-4.91,0-6.45-0.42c0,0-0.42,0-0.42-0.42C185.29,20.97,174.35,13.4,156.12,13.4"/>
	<path id="XMLID_7_" d="M409.66,257.26c-59.88,33.09-55.81,76.01-122.98,93.82c-76.01,19.77-137.57-31.13-92.97-41.23
		c10.52-1.96,11.78-8.55,0.42-6.45c-26.64,1.68-61,15.43-28.75,68.71c0,0,4.49,1.96,6.45,0c0,0-12.2-27.06-2.8-34.78
		c42.91,40.81,138.27,48.1,198.15-31.55c20.19-26.64,43.61-42.07,66.33-51.33c-36.46-8.83-77.69-9.68-100.27-2.8
		c-2.8-36.04-4.91-46.14-11.78-61.42c-3.23-6.87-3.65-10.94,12.2-15.43c9.68-2.8,50.2-12.2,84.98-27.91
		c24.68-11.36,41.65-23.84,46.14-28.33c3.65-3.23,16.55-17.81,11.78-29.59C471.64,77.2,460,76.5,445.84,77.62
		c-12.2,1.26-17.81,1.68-93.4,18.23c-39.69,8.13-62.26,8.55-76.43,12.9c0,0-18.65-45.3-80.49-47.26c-8.13,0-21.03-1.68-27.49-8.13
		c-6.87-5.19-19.07-4.49-29.17,1.26c-7.71,4.07-14.16,10.52-15.43,16.55c-2.8,10.52-6.45,9.68-21.03,21.88
		c-18.23,15-59.88,48.1-13.74,132.66c-42.07,24.26-48.1,52.59-48.1,52.59l19.35-1.26c-2.8,5.19-5.19,22.72-5.19,30.29
		c-0.42,44.03,12.9,80.49,40.11,107.98c29.59,29.87,74.46,47.26,122.14,47.26c33.52,0,65.91-8.83,91.01-24.68
		c11.36-7.29,21.46-16.13,29.17-26.22c-96.2,59.88-184.41,8.83-202.22-42.07c-17.39-49.78,13.74-88.21,53.43-78.81
		c55.39,13.32,84.56,5.61,92.97-21.03c6.87,2.38,22.72,1.96,32.39-2.8C328.04,260.49,361.56,248.29,409.66,257.26"/>
	<path id="XMLID_11_" class="st1" d="M284.57,182.66c-1.68-0.14-3.37,0-5.05,0.56c-13.32,3.65-19.35,24.26-14.16,46.14
		c6.03,21.88,21.46,36.74,34.78,33.09c13.32-3.65,19.35-24.26,13.74-46.14C308.97,197.24,296.49,183.36,284.57,182.66L284.57,182.66
		z M146.86,195.28c-32.81,15.43-64.37,19.07-64.37,19.07l5.61,11.78L146.86,195.28L146.86,195.28z M228.06,205.1
		c-1.68,0-3.51,0.28-5.05,0.84c-12.9,4.07-17.81,25.1-10.94,46.56c6.87,21.46,23.42,35.62,36.46,31.13
		c12.9-4.07,17.81-25.1,10.94-46.56C253.3,218.28,240.12,205.1,228.06,205.1L228.06,205.1z"/>
	<path id="XMLID_14_" d="M271.39,214.91c-0.84,0.14-1.68,0.28-2.38,0.7c-6.45,3.23-7.71,13.32-3.23,22.58
		c4.49,9.68,13.32,14.58,19.35,11.78c6.45-3.23,7.71-13.32,3.23-22.58C284.57,219.12,277.28,214.07,271.39,214.91L271.39,214.91z
		 M219.78,234.12c-1.96-0.14-3.79,0.28-5.33,1.26c-6.45,3.65-7.71,15-1.96,24.68c5.61,9.68,15.43,15,21.88,11.36
		c6.45-3.65,7.71-15,1.96-24.68C231.98,239.17,225.53,234.54,219.78,234.12L219.78,234.12z"/>
	<path id="XMLID_24_" class="st0" d="M149.81,62.76c-5.89,0.28-12.2,3.93-15.57,16.55l30.29-11.36
		C164.67,67.95,157.52,62.48,149.81,62.76z M209.97,76.08c-4.07,0.42-7.71,1.96-9.68,5.33c-2.38,3.23-3.23,8.13-1.68,12.2
		c-3.65,8.83-3.23,19.35-0.84,27.49c2.8,8.55,6.87,14.58,12.48,17.39c3.23,1.96,7.29,1.96,10.1,1.26c4.07-1.26,6.87-4.07,8.83-8.55
		c4.49-9.26,3.65-23,0.42-32.39c1.68-1.26,3.65-4.07,4.49-6.45l-2.8-0.84c-0.84,1.68-1.68,3.23-2.8,4.49
		C223.71,82.53,216.84,75.66,209.97,76.08L209.97,76.08z M210.39,82.11c4.91,0,9.26,9.26,11.78,17.39
		c-3.65,1.68-6.45,1.68-9.26,0.42c-3.23-1.26-6.03-4.07-7.71-7.29c-1.26-2.8-1.26-6.03,0.42-8.55
		C206.32,82.95,208.29,82.11,210.39,82.11L210.39,82.11z M460.7,94.03c-6.73-0.56-77.97,49.08-77.97,49.08
		c47.26-15.71,85.26-39.69,78.39-48.94L460.7,94.03L460.7,94.03z M429.99,95.43c0,0-77.27,16.97-125.79,23
		c-52.17,6.03-98.72,42.07-98.72,42.07c-19.77,12.9,0.42,12.9,31.13,16.97c47.26,1.26,77.27-8.83,118.08-33.09
		C392.41,118.15,429.99,95.43,429.99,95.43L429.99,95.43z M239.14,95.85c-0.42,0-0.84,0.84-1.26,1.68
		c-0.84,1.68-1.26,4.07-0.42,5.19c0,0.42,0.84,0.42,1.96,0c0.42,0,0.84-0.42,0.84-0.84c0.84-0.84,0.84-2.38,0.42-3.23
		c-0.42-0.42-0.84-0.42-1.68-0.42c0-0.84,0-1.26,0.42-2.38L239.14,95.85L239.14,95.85z M246.29,99.92l-3.23,2.38
		c-0.42,1.26-0.84,3.65-0.84,5.61l-0.42,6.45c-0.42,4.07-1.26,7.29-3.23,8.55l-0.84,3.65h0.42c2.38-1.26,4.07-3.65,5.33-7.71
		l0.42-3.65l0.42-3.23v-0.84l0.42-3.23c0-0.84,0.42-1.68,0.42-2.38v-0.42l0.42,0.42c0.84,1.26,3.23,3.23,4.49,4.07l0.42,0.42h-0.42
		c-4.07,1.68-4.91,4.49-4.07,5.61c0.42,0.84,1.26,1.68,1.68,1.96c0.84,0.42,1.96,0.42,3.23-0.42c2.38-1.26,4.07-4.07,3.23-6.87
		v-0.42l-0.42-1.26c-0.42-1.26-0.84-1.96-1.96-3.23l-2.8-2.38l-0.84-0.84c-0.84-0.42-1.26-1.26-1.26-1.96v-0.42L246.29,99.92
		L246.29,99.92z M204.22,102.3c6.03,3.65,11.78,3.65,18.65,0c1.26,4.49,2.38,10.52,2.38,15.43c0,4.07-0.42,9.26-2.38,12.48
		c-1.26,1.96-2.38,2.8-4.49,3.23c-6.45,1.26-12.2-8.55-14.16-15.71C203.1,112.82,203.1,107.21,204.22,102.3L204.22,102.3z
		 M250.78,110.44h0.42c0,0,0,0.42,0.42,0.42c0,1.26,0,2.38-0.42,2.8c-0.42,0.84-0.84,1.26-1.68,1.54c-0.84,0.42-1.68,0-1.96-0.42
		c-0.84-0.42-0.84-1.26-0.42-1.96C247.55,111.98,248.81,111.28,250.78,110.44z"/>
</g>
</svg>
