<?xml version="1.0" encoding="utf-8"?>
<!-- Generator: Adobe Illustrator 24.3.0, SVG Export Plug-In . SVG Version: 6.00 Build 0)  -->
<svg version="1.1" id="Layer_1" xmlns="http://www.w3.org/2000/svg" xmlns:xlink="http://www.w3.org/1999/xlink" x="0px" y="0px"
	 viewBox="0 0 512 512" style="enable-background:new 0 0 512 512;" xml:space="preserve">
<style type="text/css">
	.st0{fill:#0D2B56;}
	.st1{fill:#FFFFFF;}
	.st2{fill:#BD3039;}
</style>
<g id="XMLID_1_">
	<rect id="XMLID_3_" x="67.19" class="st0" width="377.62" height="512"/>
	<path id="XMLID_4_" class="st1" d="M400.2,313.79c-4.49-13.33-6.17-39-31.7-56.67c25.53-17.67,27.21-43.34,31.7-56.67
		c7.43-21.6,12.34-34.93,28.05-44.33c-55.97-32.4-29.04-61.86-75.47-108.43C312.67,7.57,249.55,4.35,205.92,38.15
		c-12.06-13.61-29.74-22.16-49.24-22.16c-36.33,0-65.93,29.46-65.93,65.93c0,7.86,1.4,15.43,3.93,22.44
		c6.31-13.05,18.8-21.88,33.1-21.88c20.62,0,37.45,18.38,37.45,40.96v75.05c0,7.86-2.67,42.78-47.55,58.63
		c44.89,15.85,47.55,50.78,47.55,58.63v74.91c0,22.58-16.83,40.96-37.45,40.96c-14.31,0-26.93-8.84-33.1-21.88
		c-2.52,7.01-3.93,14.59-3.93,22.44c0,36.33,29.46,65.93,65.93,65.93c19.64,0,37.17-8.56,49.24-22.16
		c43.77,33.81,106.75,30.58,146.87-9.54c46.43-46.43,19.36-76.03,75.47-108.43C412.41,348.72,407.5,335.54,400.2,313.79"/>
	<path id="XMLID_5_" class="st2" d="M371.16,407.22c-5.33,15.57-10.24,30.16-28.9,48.82c-37.73,37.73-100.3,36.47-138.03-1.26
		c-8.14,17.53-27.07,28.62-47.69,28.62c-24.97,0-45.87-17.96-50.22-41.66c6.45,3.09,13.75,4.91,21.46,4.91
		c28.76,0,52.18-24.97,52.18-55.83V315.9c0-13.05-5.05-39.42-30.58-58.63c25.67-19.22,30.58-45.59,30.58-58.63v-74.91
		c0-30.72-23.43-55.83-52.18-55.83c-7.57,0-14.87,1.82-21.46,4.91c4.35-23.71,25.25-41.66,50.22-41.66
		c20.62,0,39.56,10.94,47.69,28.62c37.73-37.73,100.3-39,138.03-1.26c18.52,18.52,23.57,33.24,28.9,48.82
		c5.61,16.69,11.5,33.81,32.96,50.78c-8.56,10.8-13.05,23.71-17.81,37.87c-1.12,3.09-1.96,6.45-2.81,9.96
		c-2.67,10.24-12.91,37.31-35.07,51.48c22.16,14.17,32.4,41.24,35.07,51.48c0.84,3.51,1.68,6.87,2.81,9.96
		c4.91,14.31,9.26,27.21,17.81,37.87C382.67,373.41,376.78,390.52,371.16,407.22"/>
	<path id="XMLID_8_" class="st1" d="M273.53,76.87c-22.86,0-42.64,11.36-52.74,27.91v105.49c10.1,16.55,29.88,27.91,52.74,27.91
		c32.96,0,59.76-23.57,59.76-52.6c0-10.24-3.37-19.92-9.12-28.05c5.75-8.14,9.12-17.67,9.12-27.91
		C333.15,100.44,306.5,76.87,273.53,76.87L273.53,76.87z M273.53,276.2c-22.86,0-42.64,11.36-52.74,27.91V409.6
		c10.1,16.55,29.88,27.91,52.74,27.91c32.96,0,59.76-23.57,59.76-52.74c0-10.24-3.37-19.92-9.12-27.91
		c5.75-8.14,9.12-17.67,9.12-27.91C333.15,299.77,306.5,276.2,273.53,276.2z"/>
	<path id="XMLID_11_" class="st0" d="M273.53,91.6c-15.99,0-30.02,7.01-37.87,17.53v96.51c8,10.52,22.02,17.53,37.87,17.53
		c24.69,0,44.89-16.97,44.89-37.87c0-11.08-5.61-21.04-14.73-28.05c8.98-6.87,14.73-16.97,14.73-27.91
		C318.42,108.57,298.22,91.6,273.53,91.6L273.53,91.6z M273.53,291.07c-15.99,0-30.02,7.01-37.87,17.53v96.51
		c8,10.52,22.02,17.53,37.87,17.53c24.69,0,44.89-16.97,44.89-37.87c0-11.08-5.61-21.04-14.73-27.91
		c8.98-6.87,14.73-16.97,14.73-27.91C318.42,308.04,298.22,291.07,273.53,291.07L273.53,291.07z"/>
</g>
</svg>
