<?xml version="1.0" encoding="utf-8"?>
<!-- Generator: Adobe Illustrator 27.1.1, SVG Export Plug-In . SVG Version: 6.00 Build 0)  -->
<svg version="1.1" id="Layer_1" xmlns="http://www.w3.org/2000/svg" xmlns:xlink="http://www.w3.org/1999/xlink" x="0px" y="0px"
	 viewBox="0 0 512 512" style="enable-background:new 0 0 512 512;" xml:space="preserve">
<style type="text/css">
	.st0{fill:#0E2541;}
	.st1{fill:#FFFFFF;}
	.st2{fill:#CE0E2D;}
</style>
<g>
	<polyline class="st0" points="510.86,1.14 1.14,1.14 1.14,510.86 510.86,510.86 510.86,1.14 	"/>
	<path class="st1" d="M0.57,511.43V0.57h510.86v510.86H0.57 M512,0H0v0.57h0.57H0V512h512V0"/>
	<path class="st0" d="M1.14,1.14h509.72v509.72H1.14V1.14 M511.43,0.57H0.57v510.86h510.86V0.57"/>
	<path class="st1" d="M382.3,200.38c6.66-43.42,17.59-112.82,23.77-160.2c-23.98-4.97-50.28-6.66-81.24-6.97
		c-1.53,4.07-4.49,12.1-5.97,16.22c-16.96-8.45-46.53-22.08-63.91-28.95c-42.47,16.16-101.31,42.41-148.42,67.03
		c10.19,49.28,13.05,84.2,13.05,138.02c0,80.02-7.39,147.32-15.95,202.67c38.72,18.91,103.58,46.01,147.95,61.01
		c60.37-21.02,116.68-43.79,152.12-61.54c-3.06-26.15-13.63-81.5-22.24-117.84c-24.88,0.79-58.95,3.8-79.02,6.97v62.75
		c-11.3,4.28-35.34,11.25-50.28,14.31c-13.26-3.86-29.95-9.56-44.37-15.21c-1.21-39.56-1.53-108.7-1.53-145.52
		c0-27.89,0.53-76.64,1-100.25c15.74-6.44,31.27-12.68,47.38-18.12c14.95,4.54,30.32,9.98,44.9,15.69
		c0.37,19.81,0.95,53.67,1.16,74.27C325.57,205.88,355.57,204.08,382.3,200.38z"/>
	<path class="st2" d="M316.11,328.79v60.32c-20.6,7.5-41.73,14.05-64.6,18.8c-19.49-5.97-38.77-12.47-57.26-19.91
		c-1.06-45.16-2.27-106.22-1.74-155.13c0.42-38.98,0.21-71.78,1.21-109.23c19.17-8.45,42.57-17.27,60.64-23.4
		c20.76,6.18,39.4,13.1,58.74,20.6c0.26,15,1,50.28,1.21,70.51c14.1,0.53,33.7-0.9,56.04-3.43c7.03-45.74,14.21-93.12,20.6-136.43
		c-17.32-3.01-37.82-4.17-56.62-4.44l-7.98,21.55c-23.19-11.94-46.48-22.98-71.62-33.38c-46.43,18.17-89.27,37.56-132.84,59.74
		c8.08,41.57,11.3,74.32,11.3,130.47c0,73.58-6.5,142.09-14.53,194.59c44,20.6,86.84,38.35,132.84,54.51
		c47.06-16.48,93.33-34.17,137.23-55.09c-2.54-18.7-10.78-62.75-18.22-95.5C352.66,324.83,334.76,326.41,316.11,328.79z"/>
</g>
</svg>
