<?xml version="1.0" encoding="utf-8"?>
<!-- Generator: Adobe Illustrator 26.5.0, SVG Export Plug-In . SVG Version: 6.00 Build 0)  -->
<svg version="1.1" id="Layer_1" xmlns="http://www.w3.org/2000/svg" xmlns:xlink="http://www.w3.org/1999/xlink" x="0px" y="0px"
	 viewBox="0 0 512 512" style="enable-background:new 0 0 512 512;" xml:space="preserve">
<style type="text/css">
	.st0{fill:#072854;}
	.st1{fill:#0E2B58;}
	.st2{fill:#EA5B18;}
	.st3{fill:#F48412;}
	.st4{fill:#EC6E1C;}
	.st5{fill:#FFFFFF;}
	.st6{fill:#CAC9C9;}
</style>
<g id="g4149" transform="matrix(0.47909,0,0,0.47909,5.2095,255.25)">
</g>
<g id="g3807" transform="matrix(0.47909,0,0,0.47909,5.1777,255.46)">
	<g id="g3944" transform="translate(1.1908,0)">
		<g id="g3935">
		</g>
	</g>
</g>
<g id="XMLID_1_">
	<g id="layer2" transform="translate(0,-250)">
		<path id="path3024" class="st0" d="M512,506c0,141.31-114.69,256-256,256S0,647.31,0,506s114.69-256,256-256S512,364.69,512,506z"
			/>
		<path id="path196-6" class="st1" d="M468.41,722.65h-3.51V708.9l0,0l-4.97,13.75h-3.36l-4.83-13.75l0,0v13.75h-3.51v-17.26h6.14
			l4.1,11.26l0,0l4.24-11.26h6L468.41,722.65L468.41,722.65z M444.85,708.61h-5.27v14.19h-3.51v-14.19h-5.12v-3.07h13.9V708.61z"/>
	</g>
	<g id="layer7" transform="translate(0,-250)">
		<path id="path3802" class="st2" d="M254.98,263.02c-134.58,0-243.71,109.13-243.71,243.86s109.13,243.86,243.71,243.86
			s243.86-109.13,243.86-243.86S389.56,263.02,254.98,263.02L254.98,263.02z M254.98,272.67c129.46,0,234.35,104.89,234.35,234.2
			s-104.89,234.2-234.35,234.2s-234.2-104.89-234.2-234.2S125.51,272.67,254.98,272.67z"/>
		<path id="path3802-4" class="st2" d="M255.71,350.35c-86.02,0-155.79,69.78-155.79,155.79c0,86.16,69.78,155.94,155.79,155.94
			s155.94-69.78,155.94-155.94C411.5,420.13,341.58,350.35,255.71,350.35z M255.71,360.01c80.9,0,146.29,65.39,146.29,146.14
			S336.6,652.43,255.71,652.43S109.42,586.9,109.42,506.15S174.81,360.01,255.71,360.01z"/>
	</g>
	<g id="layer5" transform="translate(0,-250)">
		<path id="path4132" class="st3" d="M256,352.55l-34.67,105.62H110.59L201,523.7l-34.82,105.76L256,563.78l89.97,65.68
			l-34.52-105.62l91.43-65.83H289.65L256,352.55z"/>
		<path id="path4137" class="st2" d="M378.73,466.06h-91.28l2.34-7.9L256,352.55V506l-89.82,123.61L256,563.93l89.97,65.68
			l-34.52-105.62l91.43-65.83L378.73,466.06z"/>
		<path id="path4147" class="st4" d="M201,523.85l9.65-3.07l-75.34-53.83l-24.87-8.63L201,523.85z"/>
	</g>
	<g id="layer9">
		<path id="path4131" class="st0" d="M323.29,309.54l-4.53-14.19v12.58L323.29,309.54z"/>
		<path id="path4131-5" class="st0" d="M188.71,311l4.53-14.19v12.58L188.71,311z"/>
	</g>
	<g id="layer4" transform="translate(0,-250)">
		<path id="path164" class="st5" d="M173.2,564.81v25.16h71.97v-25.16l-19.89-7.17v-30.43h61.29v30.43l-19.89,7.17v25.16h71.97
			v-25.16l-19.89-7.17v-93.18l19.89-7.17v-25.16h-71.97v25.16l19.89,7.17v30.43h-61.29v-30.43l19.75-7.17v-25.16l0,0h-15.36h-56.61
			v25.16l19.89,7.02v43.3v9.65v40.23L173.2,564.81z"/>
	</g>
	<g id="layer6">
		<path id="path168" class="st6" d="M338.8,207.29v-25.16l-6.44,6.44v14.19l-19.89,7.17v102.25l6.44-4.53v-40.23v-52.22v-0.73
			L338.8,207.29z"/>
		<path id="path172" class="st6" d="M338.8,314.81l-6.44,4.53v14.19h-59.1l-6.44,6.44h71.97L338.8,314.81L338.8,314.81z"/>
		<path id="path176" class="st6" d="M225.28,277.21h13.9h47.54l6.44-6.44h-74.17v41.4l6.44-4.53v-11.26v-19.16H225.28z"/>
		<path id="path180" class="st6" d="M245.17,320.95v-6.14l-6.44,4.53v14.34h-59.1l-6.44,6.44h5.27h15.36h25.16h26.04v-19.16H245.17z
			"/>
		<path id="path184" class="st6" d="M199.53,209.92l-19.89-7.17l-6.44,4.53l19.89,7.17L199.53,209.92z"/>
		<path id="path188" class="st6" d="M273.26,202.75l-6.44,4.53l19.89,7.17l6.44-4.53L273.26,202.75z"/>
		<path id="path192" class="st6" d="M245.17,207.29v-25.16l-6.44,6.44v14.19l-19.89,7.17v41.4l6.44-6.44v-30.43L245.17,207.29z"/>
	</g>
	<path id="path56-9-8" class="st5" d="M356.21,442.81l-9.07,4.53l-1.61-0.59l-14.04-27.79l0.59-1.61l9.07-4.53l1.61,0.59
		l14.04,27.79L356.21,442.81z M340.41,404.19l-14.92,7.46l-2.63,7.9l16.97,33.79l7.9,2.63l14.92-7.46l2.63-7.9l-16.97-33.94
		L340.41,404.19z"/>
	<path id="path60-4-5" class="st5" d="M211.24,435.2l5.85,0.88l2.78-5.41l4.83,0.73l-5.27,33.35l-3.51,1.02l-1.02,6.14l14.48,2.19
		l1.02-6.14l-3.07-2.05l5.27-33.5l4.83,0.73l0.88,6l5.85,0.88l2.05-13.46l-32.77-5.12L211.24,435.2L211.24,435.2z"/>
	<path id="path64-8-7" class="st5" d="M164.28,407.11l-7.61,15.21l2.63,7.9l11.7,5.85l0.59,1.61l-4.68,9.22l-1.61,0.59l-10.09-4.97
		l0.44-4.83l-5.41-2.78l-5.56,11.26l19.89,9.95l7.9-2.63l7.61-15.21l-2.63-7.9l-11.7-5.85l-0.59-1.61l4.68-9.22l1.61-0.59
		l10.09,4.97l-0.44,4.97l5.41,2.63l5.71-11.26l-19.89-9.95L164.28,407.11L164.28,407.11z"/>
	<path id="path68-8-6" class="st5" d="M396.29,386.05l-9.36,9.22h-1.76l-7.31-7.46v-1.61l8.05-7.9l4.53,2.05l4.24-4.24l-8.78-8.92
		l-15.95,15.65v8.34l11.85,12h8.34l9.36-9.22h1.76l7.31,7.46v1.76l-7.9,7.9l-4.53-2.05l-4.24,4.24l8.78,8.92l15.95-15.65v-8.34
		l-11.85-12.14L396.29,386.05L396.29,386.05z"/>
	<path id="path72-2-1" class="st5" d="M290.96,443.98l-10.97,1.76l-2.05-12.73l10.97-1.76l1.46,1.02l1.61,10.24L290.96,443.98
		L290.96,443.98z M302.08,462.41l-5.85-12.14l4.1-5.71l-2.63-16.82l-6.73-4.83l-25.31,3.95l1.02,6.14l3.51,1.02l5.27,33.5
		l-3.07,2.05l1.02,6.14l14.48-2.34l-1.02-6.14l-3.51-1.02l-2.05-12.87l7.17-1.17l5.56,11.7l-2.63,1.76l1.02,6.14l14.48-2.34
		l-1.02-6.14L302.08,462.41z"/>
	<path id="path76-45-8" class="st5" d="M112.93,394.09l16.82-12.29l2.34,2.34l-12,17.12L112.93,394.09z M130.49,371.42l-34.23,25.01
		l-3.36-1.17l-4.39,4.39l10.39,10.24l4.39-4.39l-1.32-3.36l4.39-3.22l9.07,8.92l-3.07,4.39l-3.36-1.17l-4.39,4.39l10.39,10.24
		l4.39-4.39l-1.32-3.36l24.28-34.67L130.49,371.42L130.49,371.42z"/>
	<path id="path80-5-9" class="st5" d="M105.62,160.62l4.97,3.8l8.92-11.56l-4.97-3.8l-3.22,1.76l-10.24-8.05l7.61-9.65l10.24,8.05
		l-0.88,3.66l4.97,3.8l8.92-11.56l-4.97-3.8l-3.22,1.76L96.99,114.1l0.88-3.51l-4.97-3.8l-8.92,11.56l4.97,3.8l3.22-1.76l10.24,8.05
		l-7.46,9.65l-10.24-8.05l0.88-3.66l-4.97-3.8l-8.92,11.56l4.97,3.8l3.22-1.76l26.92,20.92L105.62,160.62L105.62,160.62z"/>
	<path id="path84-1-2" class="st5" d="M370.98,78.26l1.76-0.29l8.34,5.71l0.29,1.76l-17.7,25.75l-1.76,0.29l-8.34-5.71l-0.29-1.76
		L370.98,78.26z M360.01,119.81l8.19-1.46l21.5-31.01l-1.46-8.19l-13.75-9.51l-8.19,1.46l-21.5,31.01l1.46,8.19L360.01,119.81
		L360.01,119.81z"/>
	<path id="path88-7-7" class="st5" d="M130.78,83.97l8.34-5.71l1.76,0.29l17.85,25.6l-0.29,1.76l-8.34,5.71l-1.76-0.29l-17.85-25.6
		L130.78,83.97z M151.7,119.95l13.75-9.51l1.46-8.19l-21.5-31.01l-8.19-1.46l-13.75,9.51L122,87.48l21.5,31.01L151.7,119.95
		L151.7,119.95z"/>
	<path id="path92-1-9" class="st5" d="M178.91,57.05l10.68,34.23l7.31,3.8l15.95-4.97l3.8-7.46l-10.68-34.23l2.78-2.49l-1.9-6
		l-13.9,4.39l1.9,6l3.66,0.44l9.8,31.16l-0.88,1.61l-9.65,3.07l-1.61-0.73l-9.8-31.16l2.78-2.49l-1.9-6l-13.9,4.39l1.9,5.85
		L178.91,57.05L178.91,57.05z"/>
	<path id="path96-1-5" class="st5" d="M301.64,84.41l-1.9,6l13.9,4.39l1.9-6l-2.78-2.49l10.09-32.33l4.68,1.46v6l5.71,1.76
		l4.1-13.02l-31.74-9.95l-4.1,13.02L307.2,55l3.51-4.97l4.68,1.46L305.3,83.82L301.64,84.41L301.64,84.41z"/>
	<path id="path100-52-4" class="st5" d="M270.04,78.85V61.88l-5.85-5.85h-13.17l-1.17-1.32V44.32l1.17-1.32h11.26l1.76,4.53h6V34.96
		h-22.24l-5.85,5.85v16.97l5.85,5.85h13.17l1.17,1.32v10.39l-1.17,1.32h-11.26l-1.76-4.53h-6V84.7h22.24L270.04,78.85L270.04,78.85z
		"/>
	<path id="path104-7-3" class="st5" d="M431.84,122.73l-4.83,3.8l0.88,3.51l-18.29,14.19l17.12-28.38l-7.75-9.95l-4.97,3.8
		l0.88,3.51l-26.77,20.92l-3.22-1.61l-4.97,3.8l8.92,11.56l4.97-3.8l-0.88-3.66l18.29-14.19l-16.97,28.38l5.71,7.31l32.91-25.75
		l3.22,1.76l4.97-3.8L431.84,122.73L431.84,122.73z"/>
</g>
</svg>
