<?xml version="1.0" encoding="utf-8"?>
<!-- Generator: Adobe Illustrator 27.0.0, SVG Export Plug-In . SVG Version: 6.00 Build 0)  -->
<svg version="1.1" id="Layer_1" xmlns="http://www.w3.org/2000/svg" xmlns:xlink="http://www.w3.org/1999/xlink" x="0px" y="0px"
	 viewBox="0 0 512 512" style="enable-background:new 0 0 512 512;" xml:space="preserve">
<style type="text/css">
	.st0{fill:#FFFFFF;}
	.st1{fill:#BA122B;}
	.st2{fill:#14225A;}
	.st3{fill:#BA122F;}
</style>
<g id="XMLID_1_">
	<g id="layer2">
		<path id="path3525" class="st0" d="M512,256c0,141.31-114.69,256-256,256S0,397.31,0,256S114.69,0,256,0S512,114.69,512,256z"/>
	</g>
	<g id="layer3">
		<g id="XMLID_11_">
			<path id="path4315_1_" class="st1" d="M501.17,256c0,135.46-109.71,245.17-245.17,245.17S10.83,391.46,10.83,256l0,0
				C10.83,120.54,120.54,10.83,256,10.83C391.46,10.83,501.17,120.54,501.17,256L501.17,256z"/>
			<path id="XMLID_8_" d="M256,501.32c-33.06,0-65.24-6.44-95.52-19.31c-29.26-12.29-55.44-29.99-77.97-52.52
				s-40.23-48.71-52.52-77.97C17.26,321.24,10.68,289.21,10.68,256l0,0c0-33.06,6.44-65.24,19.31-95.52
				c12.29-29.26,29.99-55.44,52.52-77.97s48.71-40.23,77.97-52.52c30.28-12.73,62.32-19.31,95.52-19.31l0,0
				c33.06,0,65.24,6.44,95.52,19.31c29.26,12.29,55.44,29.99,77.97,52.52c22.53,22.53,40.23,48.71,52.52,77.97
				c12.73,30.28,19.31,62.32,19.31,95.52l0,0h-0.15h0.15c0,33.06-6.44,65.24-19.31,95.52c-12.29,29.26-29.99,55.44-52.52,77.97
				c-22.53,22.53-48.71,40.23-77.97,52.52C321.24,494.88,289.06,501.32,256,501.32L256,501.32z M256,10.83L256,10.83
				C120.83,10.83,10.83,120.83,10.83,256l0,0c0,65.54,25.45,126.98,71.83,173.35c46.23,46.23,107.81,71.83,173.35,71.83l0,0
				c135.17,0,245.17-110.01,245.03-245.17l0,0c0-65.54-25.45-126.98-71.83-173.35C382.98,36.43,321.39,10.83,256,10.83z"/>
		</g>
		<path id="path3306" class="st2" d="M441.05,462.41L441.05,462.41l-3.22-9.07h-4.53v13.9h2.63v-11.12h0.15l3.66,11.12h2.49
			l3.8-11.12l0,0v11.12h2.63v-13.9h-4.68L441.05,462.41L441.05,462.41z"/>
		<path id="path3310" class="st2" d="M420.28,455.83h3.95v11.41h2.63v-11.41h3.95v-2.49h-10.68v2.49H420.28z"/>
	</g>
	<g id="layer4">
		<g id="XMLID_7_">
			<path id="path4318_1_" class="st2" d="M487.42,256.59c0,128-103.72,231.86-231.86,231.86c-128,0-231.86-103.72-231.86-231.86l0,0
				c0-128,103.72-231.86,231.86-231.86C383.56,24.58,487.28,128.44,487.42,256.59C487.42,256.44,487.42,256.44,487.42,256.59z"/>
			<path id="XMLID_4_" d="M255.41,488.59c-31.31,0-61.73-6.14-90.26-18.29c-27.65-11.7-52.37-28.38-73.73-49.74
				c-21.36-21.36-38.03-46.08-49.74-73.73c-12.14-28.53-18.29-58.95-18.29-90.26l0,0c0-31.31,6.14-61.73,18.29-90.26
				c11.7-27.65,28.38-52.37,49.74-73.73s46.08-38.03,73.73-49.74c28.67-12.14,58.95-18.29,90.26-18.29l0,0
				c31.31,0,61.73,6.14,90.26,18.29c27.65,11.7,52.37,28.38,73.73,49.74s38.03,46.08,49.74,73.73
				c12.14,28.67,18.29,58.95,18.29,90.26l0,0h-0.15h0.15c0,31.31-6.14,61.73-18.29,90.26c-11.7,27.65-28.38,52.37-49.74,73.73
				s-46.08,38.03-73.73,49.74C317.15,482.45,286.87,488.59,255.41,488.59C255.56,488.59,255.41,488.59,255.41,488.59z M255.41,24.72
				L255.41,24.72c-61.88,0-120.1,24.14-163.99,67.88c-43.74,43.74-67.88,101.96-67.88,163.84l0,0
				c0,127.85,104.01,231.72,231.72,231.72l0,0c61.88,0,120.1-24.14,163.84-67.88s67.88-101.96,67.88-163.84l0,0
				C487.28,128.73,383.27,24.72,255.41,24.72z"/>
		</g>
	</g>
	<g id="layer6">
		<path id="XMLID_3_" class="st3" d="M256,423.06c-44.62,0-86.6-17.41-118.2-49.01S88.8,300.47,88.8,255.85s17.41-86.6,49.01-118.2
			S211.38,88.65,256,88.65l0,0c92.16,0,167.06,74.9,167.06,167.06l0,0C423.06,348.16,348.16,423.06,256,423.06L256,423.06z
			 M256,98.45L256,98.45c-42.13,0-81.63,16.38-111.47,46.08c-29.7,29.7-46.08,69.34-46.08,111.32c0,42.13,16.38,81.63,46.08,111.47
			c29.7,29.7,69.34,46.08,111.32,46.08l0,0c86.89,0,157.55-70.66,157.55-157.55l0,0C413.55,169.11,342.89,98.45,256,98.45z"/>
	</g>
	<g id="layer7">
		<path id="path3796" class="st0" d="M405.36,256c0,82.51-66.85,149.36-149.36,149.36S106.64,338.51,106.64,256
			S173.49,106.64,256,106.64S405.36,173.49,405.36,256z"/>
	</g>
	<g id="layer8">
		<path id="path3799" class="st1" d="M69.19,294.03l-11.7-8.48l-11.7,8.63l4.39-13.9l-11.85-8.48h14.48l4.39-13.9l4.53,13.9
			l14.48-0.15l-11.7,8.63L69.19,294.03z"/>
		<path id="path3799-1" class="st1" d="M465.92,294.33l-11.7-8.48l-11.7,8.63l4.39-13.9l-11.85-8.48h14.48l4.39-13.9l4.53,13.9
			l14.48-0.15l-11.7,8.63L465.92,294.33z"/>
		<g id="g3384" transform="matrix(0.76972,0,0,0.76847,9.3362,105.86)">
			<path id="path3230" class="st0" d="M100.64,117.89L75.63,91.56l36.13,0.15l0.88-2.05L70.22,51.33l-4.24,9.95l23.84,20.63
				l-33.79,0.15l-0.88,2.05l23.26,24.43l-31.45-2.49l-4.39,10.39l57.2,3.66L100.64,117.89L100.64,117.89z"/>
			<path id="path3234" class="st0" d="M159.16-8.65c2.19,0,4.68-0.29,7.75-1.02l3.8-0.73c1.9-0.44,3.8-0.73,5.41-0.73
				c2.19,0,3.51,0.73,4.68,2.34c0.73,1.02,1.02,2.19,0.88,3.36c-0.29,1.9-1.61,3.8-3.95,5.41c-3.8,2.78-7.9,3.07-12,1.17l-1.17-0.59
				l-4.68,9.07l1.17,0.59c3.07,1.46,6.14,2.19,9.36,2.19c4.53,0,8.92-1.46,13.02-4.53c9.07-6.58,11.12-15.36,5.56-23.11
				c-3.22-4.53-7.31-6.58-12.73-6.58c-2.19,0-4.68,0.29-8.05,1.02l-3.8,0.73c-2.34,0.44-4.1,0.88-5.56,0.88
				c-1.9,0-3.07-0.59-4.24-2.05c-1.61-2.34-1.17-4.83,1.46-6.73c2.63-1.9,5.12-2.19,8.34-0.73l1.32,0.59l3.51-9.22l-1.17-0.44
				c-6.14-2.63-12.14-1.9-17.7,2.19c-3.51,2.63-5.85,6-6.58,9.8c-0.73,3.8,0.29,7.61,2.63,10.97
				C149.65-10.55,153.6-8.65,159.16-8.65"/>
			<path id="path3238" class="st0" d="M226.16-17.72L220.6-32.2l20.19-7.75l5.56,14.48l9.95-3.8l-19.16-49.74l-9.95,3.8l10.09,26.19
				l-20.19,7.75l-10.09-26.19l-9.95,3.8l19.16,49.74L226.16-17.72L226.16-17.72z"/>
			<path id="path3242" class="st0" d="M291.55-35.42l-7.61-52.81l-10.53,1.46l7.61,52.81L291.55-35.42z"/>
			<path id="path3246" class="st0" d="M329.14-68.48l28.09,34.38l2.49,0.15l4.24-53.98l-10.09-0.73l-2.34,31.16l-28.23-34.38
				l-2.49-0.15l-4.24,53.98l10.09,0.73L329.14-68.48z"/>
			<path id="path3250" class="st0" d="M406.38-19.91c4.24,1.61,8.34,2.49,12.29,2.49c3.07,0,6.14-0.59,9.36-1.61l0.59-0.15
				l7.46-19.16l-22.09-8.48l-3.51,9.07l12.73,4.83l-2.05,5.27c-3.36,0.59-7.02,0.15-11.12-1.46c-9.8-3.8-13.9-12.87-10.09-22.53
				c2.78-7.17,8.63-11.56,15.51-11.56c2.05,0,3.95,0.44,6,1.17c6.73,2.63,8.63,6.29,10.09,9.95l0.44,1.32l9.51-3.95l-0.44-1.17
				c-2.78-7.31-7.75-12.14-15.8-15.21c-3.36-1.32-6.73-1.9-10.24-1.9c-11.26,0-20.92,6.73-25.16,17.7
				C384-41.12,391.17-25.76,406.38-19.91"/>
			<path id="path3254" class="st0" d="M461.24,10.52l25.75-35.25l12.14,8.92l5.71-7.9L471.92-47.7l-5.71,7.9l12.14,8.92L452.61,4.23
				L461.24,10.52L461.24,10.52z"/>
			<path id="path3258" class="st0" d="M495.18,30.71c-0.73,7.17,1.46,14.19,6.14,20.04c5.41,6.73,13.17,10.53,21.36,10.53
				c6.14,0,12.14-2.19,17.12-6.14c5.85-4.68,9.51-11.26,10.24-18.58c0.73-7.17-1.46-14.19-6.14-20.04
				c-5.41-6.73-13.17-10.53-21.36-10.53c-6.14,0-12.14,2.19-17.12,6.14C499.57,16.95,495.91,23.54,495.18,30.71 M512.29,20.76
				c3.51-2.78,7.46-4.24,11.41-4.24c4.83,0,9.36,2.19,12.58,6.29c6,7.46,4.68,17.55-3.22,23.84c-3.51,2.78-7.46,4.24-11.41,4.24
				c-4.83,0-9.36-2.19-12.58-6.29C503.08,37.14,504.39,27.05,512.29,20.76"/>
			<path id="path3262" class="st0" d="M532.33,99.46l29.11-11.56l-18.29,39.79l-0.29,0.44l0.88,2.34l50.32-19.89l-3.8-9.36
				l-29.11,11.56l18.58-40.23l-0.88-2.34L528.53,90.1L532.33,99.46L532.33,99.46z"/>
			<path id="path3266" class="st0" d="M130.49,331.61l-26.33,16.97l10.39-43.15l-1.32-2.19l-45.49,29.4l5.56,8.48l26.33-16.97
				l-10.39,43.15l1.46,2.05l45.49-29.4L130.49,331.61L130.49,331.61z"/>
			<path id="path3270" class="st0" d="M188.56,400.66l13.31,7.02l-20.33,38.62l9.36,4.97l20.48-38.47l13.31,7.02l4.53-8.63
				l-36.13-19.16L188.56,400.66z"/>
			<path id="path3274" class="st0" d="M235.08,469.12l10.24,2.93l14.92-51.2L250,417.92L235.08,469.12L235.08,469.12z"/>
			<path id="path3278" class="st0" d="M309.25,427.58c-15.51-0.73-28.09,10.68-28.67,26.04c-0.73,15.36,10.83,27.94,26.19,28.53
				c0.44,0,0.88,0,1.32,0c14.92,0,26.62-11.26,27.36-26.19C336.16,440.74,324.61,428.31,309.25,427.58 M307.2,472.34
				c-9.65-0.44-16.24-8.05-15.8-18.14c0.44-9.8,7.17-16.68,16.53-16.68c0.29,0,0.59,0,0.88,0c4.68,0.15,8.78,2.19,11.7,5.56
				c2.78,3.36,4.24,7.9,4.1,12.73C324.02,465.76,316.85,472.78,307.2,472.34"/>
			<path id="path3282" class="st0" d="M389.12,418.36l7.75,30.43l-37.16-23.11l-0.44-0.29l-2.49,0.59l13.46,52.37l9.8-2.49
				l-7.75-30.28l37.16,23.11l0.44,0.29l2.49-0.59l-13.46-52.37L389.12,418.36L389.12,418.36z"/>
			<path id="path3286" class="st0" d="M511.85,394.66l-30.72-30.87l-7.61,7.46l37.6,37.89l23.41-23.26l-6.88-6.88L511.85,394.66z"/>
			<path id="path3290" class="st0" d="M560.71,322.4c-2.78-1.76-5.56-2.49-8.19-2.49c-4.39,0-8.48,2.05-13.17,5.27l-3.22,2.19
				c-3.22,2.19-5.27,3.36-7.02,3.36c-0.88,0-1.61-0.29-2.63-0.88c-2.49-1.46-2.93-3.95-1.17-6.73c1.61-2.63,3.8-3.8,7.17-3.8h1.61
				l-0.29-9.95h-1.61c-6.44,0-11.56,2.93-15.21,8.78c-2.34,3.8-3.07,7.9-2.34,11.56c0.73,3.8,3.07,7.02,6.58,9.22
				c2.63,1.61,5.12,2.34,7.9,2.34c3.95,0,7.75-1.61,13.02-5.12l3.22-2.19c2.63-1.76,4.83-3.36,7.02-3.36c1.02,0,1.9,0.29,2.93,0.88
				c1.17,0.73,1.76,1.61,2.05,2.78c0.44,1.76-0.15,4.1-1.61,6.44c-2.49,3.95-6,5.85-10.68,5.56l-1.32-0.15l-0.88,10.09l1.32,0.15
				c0.59,0,1.02,0,1.61,0c7.61,0,14.19-3.8,18.29-10.68c3.22-5.12,4.24-10.09,3.22-14.63C566.71,327.67,564.37,324.59,560.71,322.4"
				/>
			<path id="path3294" class="st0" d="M112.93,394.81l8.19,7.17l8.48-4.24l14.77,12.87l-3.07,9.07l8.48,7.46l18.14-56.47l-1.61-1.32
				L112.93,394.81L112.93,394.81z M148.19,399.05l-0.59,1.76l-8.63-7.61l1.61-0.73l11.85-5.85L148.19,399.05L148.19,399.05z"/>
			<path id="path3298" class="st0" d="M435.93,396.27l7.61,58.81l9.36-5.56l-1.32-9.36l16.82-9.95l7.61,5.71l9.65-5.71l-47.98-34.96
				L435.93,396.27L435.93,396.27z M458.61,422.75l1.46,1.02l-9.95,5.85l-0.29-1.76l-1.9-13.17L458.61,422.75z"/>
			<path id="path3302" class="st0" d="M131.22,58.5l-4.39-8.48l12.43-15.07l9.07,2.78l7.17-8.63L98.45,12.71l-1.32,1.61l27.21,52.66
				L131.22,58.5L131.22,58.5z M114.83,27.49l12.73,3.8l1.76,0.59L122,40.8L114.83,27.49z"/>
		</g>
	</g>
	<g id="layer5">
		<g id="g3791">
			<path id="path3467" class="st2" d="M338.8,150.82c-21.07-16.82-40.08,4.24-40.08,16.24c21.07,4.53,39.79,25.6,31.45,80.16
				c-6.88,44.76-33.21,72.56-49.74,73.14c13.75-18.87,22.97-40.08,27.94-60.85c15.07-62.03-9.07-82.07-28.09-83.09
				c-23.11-1.17-46.37,30.43-52.96,67.73c-5.12,29.55-4.39,59.83,13.46,81.92c-15.95,20.04-53.98,26.33-47.4-22.09
				c5.56-40.52,25.75-85.14,36.86-107.08l0.29-0.59c6-12.29,10.68-20.92,12.73-24.43l-4.53-0.15c-43.3,0.73-77.97,10.83-94.06,32.77
				c-15.07,20.63-15.51,42.28-3.07,55.15l1.9,1.9c3.66,3.66,8.48,5.56,13.17,5.56l0,0c4.39,0,8.63-1.61,12-4.83
				c3.36-3.22,4.97-7.61,4.97-12c0-4.83-1.9-9.51-5.56-13.17c-2.05-1.9-4.24-3.36-6.58-4.24l0.15-0.15l1.17-2.34
				c2.93-5.12,8.05-9.8,14.63-13.02c5.27-2.63,11.41-4.39,17.99-5.12l-1.02,2.19c-9.22,17.12-22.67,49.59-26.92,66.56
				c-13.17,53.1,8.19,84.11,31.31,88.5c27.94,5.27,49.3-8.34,60.56-25.75c13.46,8.63,49.01,13.46,75.92-34.23
				C366.01,254.54,367.03,173.49,338.8,150.82 M259.95,307.93c-5.27-12.87-7.75-28.09-7.75-42.42c0-17.41,3.51-33.5,9.51-43.01
				c3.95-6.29,8.63-9.22,13.9-8.92c1.9,0.15,3.95,0.73,5.56,4.39c1.17,2.93,1.76,6.88,1.76,11.41
				C283.06,251.9,269.46,290.67,259.95,307.93"/>
			<path id="path3469" class="st1" d="M335.58,154.77c-6.73-5.41-13.6-6.58-20.04-3.51c-5.41,2.63-9.51,7.75-11.12,12.14
				c13.02,4.39,32.62,17.85,32.62,59.25c0,7.61-0.73,15.95-2.19,25.45c-6.44,42.13-29.84,70.8-48.71,76.36
				c-5.56,1.61-10.53,1.17-14.63-1.02c18.58-22.97,27.5-47.54,31.74-65.1c3.36-13.6,4.68-24.72,4.68-33.94
				c0-16.24-4.1-26.19-8.48-32.04c-6.73-8.92-15.07-10.53-19.6-10.83c-19.75-1.02-41.55,28.23-47.69,63.63
				c-1.76,10.24-2.78,19.75-2.78,28.38c0,22.24,5.85,39.5,17.55,52.37c-8.63,13.6-26.33,22.97-40.37,19.75
				c-6.14-1.46-19.16-7.17-19.16-31.01c0-3.36,0.29-7.02,0.88-11.12c5.12-36.57,21.8-76.95,33.65-101.38l0.29-0.59
				c5.12-10.68,9.51-19.16,12.43-24.43h-0.59c-42.13,1.46-71.53,12-85.28,30.57c0,0-11.41,14.63-10.97,29.4
				c0.29,8.63,3.22,16.24,9.8,21.5l0.88,0.73c5.12,3.95,12.29,3.95,16.53-0.44c4.68-4.83,4.39-12.73-0.59-17.85
				c-2.63-2.63-6-3.95-9.36-4.1h-0.15c2.93-16.97,22.53-29.99,46.08-29.99l3.07,0.15l-0.44,0.88l-4.83,9.22
				c-8.78,16.24-22.24,48.27-26.48,65.39c-6.73,26.77-4.68,50.32,5.41,66.27c5.71,8.78,13.46,14.48,21.94,16.09
				c18.72,3.51,32.33-2.49,40.37-8.05c6.73-4.68,13.46-12,18.14-19.6c5.56,3.66,14.92,7.46,22.82,7.31
				c13.31-0.15,32.77-6.88,49.88-37.16c14.19-25.31,22.67-57.78,23.26-89.09C354.6,188.12,347.72,164.57,335.58,154.77
				 M275.89,208.6c29.7,1.9-3.8,94.79-16.68,109.71C237.86,279.7,245.91,206.7,275.89,208.6"/>
		</g>
	</g>
</g>
</svg>
