<svg xmlns="http://www.w3.org/2000/svg" fill="none" viewBox="0 0 24 24" height="48" width="48"><g id="cake"><path id="Vector" stroke="#000000" d="M13.0001 4C11.3433 4 10.0001 5.34315 10.0001 7C10.0001 8.65685 11.3433 10 13.0001 10C14.657 10 16.0001 8.65685 16.0001 7C16.0001 5.34315 14.657 4 13.0001 4ZM13.0001 4C13.0001 2.34315 11.7753 1 10.0001 1M15.7918 5.8995C17.4656 5.55445 18.5001 5.5 18.5001 5.5C18.5001 5.5 22.0001 8 23.0001 13.5714M23.0001 13.5714V23H1.00012V13.5714M23.0001 13.5714H1.00012M1.00012 13.5714C4.0088 10.7239 7.22963 8.87662 10.0775 7.67992M23 18.2857H1"></path></g></svg>