<svg xmlns="http://www.w3.org/2000/svg" fill="none" viewBox="0.25 0.25 23.5 23.5" height="48" width="48" stroke-width="0.5"><path stroke="#191919" stroke-linecap="round" stroke-linejoin="round" d="M0.5 23.04H23.5"></path><path fill="#ffdda1" d="M1.5 12.96V19.2C1.51234 19.7192 1.72955 20.2125 2.10424 20.5722C2.47892 20.9319 2.98067 21.1289 3.5 21.12H20.5C21.0193 21.1289 21.5211 20.9319 21.8958 20.5722C22.2705 20.2125 22.4877 19.7192 22.5 19.2V12.96"></path><path fill="#ffbc44" d="M20.5 18.587H3.5C2.98067 18.5959 2.47892 18.3989 2.10424 18.0392C1.72955 17.6795 1.51234 17.1862 1.5 16.667V19.2C1.51234 19.7192 1.72955 20.2125 2.10424 20.5722C2.47892 20.9319 2.98067 21.1289 3.5 21.12H20.5C21.0193 21.1289 21.5211 20.9319 21.8958 20.5722C22.2705 20.2125 22.4877 19.7192 22.5 19.2V16.667C22.4877 17.1862 22.2705 17.6795 21.8958 18.0392C21.5211 18.3989 21.0193 18.5959 20.5 18.587V18.587Z"></path><path stroke="#191919" stroke-linecap="round" stroke-linejoin="round" d="M1.5 12.96V19.2C1.51234 19.7192 1.72955 20.2125 2.10424 20.5722C2.47892 20.9319 2.98067 21.1289 3.5 21.12H20.5C21.0193 21.1289 21.5211 20.9319 21.8958 20.5722C22.2705 20.2125 22.4877 19.7192 22.5 19.2V12.96"></path><path fill="#ffef5e" stroke="#191919" stroke-linecap="round" stroke-linejoin="round" d="M7 3.35999C6.99186 3.74979 6.8293 4.12043 6.54803 4.39044C6.26677 4.66045 5.88982 4.80776 5.5 4.79999C5.11018 4.80776 4.73323 4.66045 4.45197 4.39044C4.1707 4.12043 4.00814 3.74979 4 3.35999C4.18736 2.54244 4.56761 1.78159 5.109 1.14099C5.15716 1.08429 5.21707 1.03874 5.28459 1.0075C5.35211 0.976263 5.42561 0.960083 5.5 0.960083C5.57439 0.960083 5.64789 0.976263 5.71541 1.0075C5.78293 1.03874 5.84284 1.08429 5.891 1.14099C6.43278 1.78134 6.81309 2.54228 7 3.35999V3.35999Z"></path><path fill="#ffef5e" stroke="#191919" stroke-linecap="round" stroke-linejoin="round" d="M20 3.35999C20 3.75781 19.842 4.13934 19.5607 4.42065C19.2794 4.70195 18.8978 4.85999 18.5 4.85999C18.1022 4.85999 17.7206 4.70195 17.4393 4.42065C17.158 4.13934 17 3.75781 17 3.35999C17.1874 2.54244 17.5676 1.78159 18.109 1.14099C18.1572 1.08429 18.2171 1.03874 18.2846 1.0075C18.3521 0.976263 18.4256 0.960083 18.5 0.960083C18.5744 0.960083 18.6479 0.976263 18.7154 1.0075C18.7829 1.03874 18.8428 1.08429 18.891 1.14099C19.4328 1.78134 19.8131 2.54228 20 3.35999V3.35999Z"></path><path fill="#ffef5e" stroke="#191919" stroke-linecap="round" stroke-linejoin="round" d="M13.5 3.35999C13.5 3.75781 13.342 4.13934 13.0607 4.42065C12.7794 4.70195 12.3978 4.85999 12 4.85999C11.6022 4.85999 11.2206 4.70195 10.9393 4.42065C10.658 4.13934 10.5 3.75781 10.5 3.35999C10.6874 2.54244 11.0676 1.78159 11.609 1.14099C11.6572 1.08429 11.7171 1.03874 11.7846 1.0075C11.8521 0.976263 11.9256 0.960083 12 0.960083C12.0744 0.960083 12.1479 0.976263 12.2154 1.0075C12.2829 1.03874 12.3428 1.08429 12.391 1.14099C12.9328 1.78134 13.3131 2.54228 13.5 3.35999V3.35999Z"></path><path fill="#ffffff" stroke="#191919" stroke-linecap="round" stroke-linejoin="round" d="M13 10.56H11V7.20001C11.0013 7.13566 11.0153 7.0722 11.0411 7.01324C11.0669 6.95429 11.1041 6.901 11.1506 6.85643C11.197 6.81186 11.2518 6.77687 11.3117 6.75346C11.3717 6.73005 11.4356 6.71869 11.5 6.72001H12.5C12.5644 6.71869 12.6283 6.73005 12.6883 6.75346C12.7482 6.77687 12.803 6.81186 12.8494 6.85643C12.8959 6.901 12.9331 6.95429 12.9589 7.01324C12.9847 7.0722 12.9987 7.13566 13 7.20001V10.56Z"></path><path fill="#ffffff" stroke="#191919" stroke-linecap="round" stroke-linejoin="round" d="M6.5 10.56H4.5V7.20001C4.5013 7.13566 4.51527 7.0722 4.5411 7.01324C4.56693 6.95429 4.60413 6.901 4.65056 6.85643C4.69699 6.81186 4.75175 6.77687 4.81171 6.75346C4.87167 6.73005 4.93565 6.71869 5 6.72001H6C6.06435 6.71869 6.12833 6.73005 6.18829 6.75346C6.24825 6.77687 6.30301 6.81186 6.34944 6.85643C6.39587 6.901 6.43307 6.95429 6.4589 7.01324C6.48473 7.0722 6.4987 7.13566 6.5 7.20001V10.56Z"></path><path fill="#ffffff" stroke="#191919" stroke-linecap="round" stroke-linejoin="round" d="M19.5 10.56H17.5V7.20001C17.5013 7.13566 17.5153 7.0722 17.5411 7.01324C17.5669 6.95429 17.6041 6.901 17.6506 6.85643C17.697 6.81186 17.7518 6.77687 17.8117 6.75346C17.8717 6.73005 17.9356 6.71869 18 6.72001H19C19.0644 6.71869 19.1283 6.73005 19.1883 6.75346C19.2482 6.77687 19.303 6.81186 19.3494 6.85643C19.3959 6.901 19.4331 6.95429 19.4589 7.01324C19.4847 7.0722 19.4987 7.13566 19.5 7.20001V10.56Z"></path><path fill="#ffbfc5" d="M22.5 12.96C22.4735 13.6385 22.1854 14.2803 21.696 14.751C21.2066 15.2216 20.554 15.4845 19.875 15.4845C19.196 15.4845 18.5434 15.2216 18.054 14.751C17.5646 14.2803 17.2765 13.6385 17.25 12.96C17.2235 13.6385 16.9354 14.2803 16.446 14.751C15.9566 15.2216 15.304 15.4845 14.625 15.4845C13.946 15.4845 13.2934 15.2216 12.804 14.751C12.3146 14.2803 12.0265 13.6385 12 12.96C11.9858 13.6422 11.7014 14.2908 11.2091 14.7634C10.7169 15.2359 10.0572 15.4937 9.375 15.48C8.6928 15.4937 8.03309 15.2359 7.54087 14.7634C7.04864 14.2908 6.76418 13.6422 6.75 12.96C6.73582 13.6422 6.45136 14.2908 5.95913 14.7634C5.46691 15.2359 4.8072 15.4937 4.125 15.48C3.4428 15.4937 2.78309 15.2359 2.29087 14.7634C1.79864 14.2908 1.51418 13.6422 1.5 12.96V11.52C1.50551 11.2602 1.61392 11.0131 1.80141 10.8331C1.9889 10.6531 2.24015 10.5549 2.5 10.56H21.5C21.7599 10.5549 22.0111 10.6531 22.1986 10.8331C22.3861 11.0131 22.4945 11.2602 22.5 11.52V12.96Z"></path><path fill="#ff808c" d="M2.50001 12.658C2.28107 12.6566 2.06801 12.7288 1.89502 12.863C1.72202 12.9972 1.59911 13.1856 1.54601 13.398C1.66524 13.9915 1.98839 14.5246 2.45942 14.9049C2.93046 15.2851 3.5197 15.4886 4.12501 15.48C4.8072 15.4937 5.46691 15.2359 5.95914 14.7634C6.45136 14.2908 6.73583 13.6422 6.75001 12.96C6.76418 13.6422 7.04865 14.2908 7.54087 14.7634C8.0331 15.2359 8.69281 15.4937 9.37501 15.48C10.0572 15.4937 10.7169 15.2359 11.2091 14.7634C11.7014 14.2908 11.9858 13.6422 12 12.96C12.0265 13.6385 12.3146 14.2803 12.804 14.751C13.2934 15.2216 13.946 15.4845 14.625 15.4845C15.304 15.4845 15.9566 15.2216 16.446 14.751C16.9354 14.2803 17.2235 13.6385 17.25 12.96C17.2804 13.5975 17.5414 14.2022 17.9844 14.6616C18.4274 15.1209 19.0222 15.4037 19.6581 15.4573C20.294 15.5109 20.9278 15.3316 21.4414 14.9527C21.9549 14.5739 22.3134 14.0214 22.45 13.398C22.3969 13.1856 22.274 12.9972 22.101 12.863C21.928 12.7288 21.7149 12.6566 21.496 12.658H2.50001Z"></path><path stroke="#191919" stroke-linecap="round" stroke-linejoin="round" d="M12 12.96C11.9858 13.6422 11.7014 14.2908 11.2091 14.7634C10.7169 15.2359 10.0572 15.4937 9.375 15.48C8.6928 15.4937 8.03309 15.2359 7.54087 14.7634C7.04864 14.2908 6.76418 13.6422 6.75 12.96"></path><path stroke="#191919" stroke-linecap="round" stroke-linejoin="round" d="M6.75 12.96C6.73582 13.6422 6.45136 14.2908 5.95913 14.7634C5.46691 15.2359 4.8072 15.4937 4.125 15.48C3.4428 15.4937 2.78309 15.2359 2.29087 14.7634C1.79864 14.2908 1.51418 13.6422 1.5 12.96V11.52C1.50551 11.2602 1.61392 11.0131 1.80141 10.8331C1.9889 10.6531 2.24015 10.5549 2.5 10.56H21.5C21.7599 10.5549 22.0111 10.6531 22.1986 10.8331C22.3861 11.0131 22.4945 11.2602 22.5 11.52V12.96C22.4735 13.6385 22.1854 14.2803 21.696 14.751C21.2066 15.2216 20.554 15.4845 19.875 15.4845C19.196 15.4845 18.5434 15.2216 18.054 14.751C17.5646 14.2803 17.2765 13.6385 17.25 12.96C17.2235 13.6385 16.9354 14.2803 16.446 14.751C15.9566 15.2216 15.304 15.4845 14.625 15.4845C13.946 15.4845 13.2934 15.2216 12.804 14.751C12.3146 14.2803 12.0265 13.6385 12 12.96"></path></svg>