<svg xmlns="http://www.w3.org/2000/svg" fill="none" viewBox="-0.5 -0.5 48 48" height="48" width="48"><path fill="#ffffff" d="M44.0625 46.02083333333333h-41.125a1.9583333333333333 1.9583333333333333 0 0 1 -1.9583333333333333 -1.9583333333333333V19.557875A1.9583333333333333 1.9583333333333333 0 0 1 1.7311666666666665 18.016666666666666l20.5625 -16.09358333333333a1.9583333333333333 1.9583333333333333 0 0 1 2.4126666666666665 0l20.5625 16.09358333333333a1.9583333333333333 1.9583333333333333 0 0 1 0.752 1.5412083333333333V44.0625a1.9583333333333333 1.9583333333333333 0 0 1 -1.9583333333333333 1.9583333333333333Z" stroke-width="1"></path><path fill="#e7e9ea" d="M21.986208333333334 9.335375a2.451833333333333 2.451833333333333 0 0 1 3.0275833333333333 0l21.007041666666666 16.45v-6.2275a1.956375 1.956375 0 0 0 -0.752 -1.5412083333333333L24.706333333333333 1.9230833333333333a1.9583333333333333 1.9583333333333333 0 0 0 -2.4126666666666665 0L1.7311666666666665 18.016666666666666a1.9583333333333333 1.9583333333333333 0 0 0 -0.752 1.5412083333333333v6.2177083333333325l21.007041666666666 -16.44020833333333Z" stroke-width="1"></path><path stroke="#191919" stroke-linecap="round" stroke-linejoin="round" d="M44.0625 46.02083333333333h-41.125a1.9583333333333333 1.9583333333333333 0 0 1 -1.9583333333333333 -1.9583333333333333V19.557875A1.9583333333333333 1.9583333333333333 0 0 1 1.7311666666666665 18.016666666666666l20.5625 -16.09358333333333a1.9583333333333333 1.9583333333333333 0 0 1 2.4126666666666665 0l20.5625 16.09358333333333a1.9583333333333333 1.9583333333333333 0 0 1 0.752 1.5412083333333333V44.0625a1.9583333333333333 1.9583333333333333 0 0 1 -1.9583333333333333 1.9583333333333333Z" stroke-width="1"></path></svg>