<svg xmlns="http://www.w3.org/2000/svg" fill="none" viewBox="0 0 24 24" height="48" width="48"><path fill="#000000" d="M4.16028 21.6331L4.158 21.6353L3.36767 22.3763L4.44435 22.4969C5.09941 22.5703 6.13035 22.5614 7.13502 22.2973C8.02596 22.063 8.9628 21.6088 9.55694 20.765C10.3432 20.9189 11.1609 21 12 21C18 21 23 16.8162 23 11.5C23 6.18376 18 2 12 2C5.99996 2 1 6.18376 1 11.5C1 14.7356 2.86622 17.5649 5.66794 19.2704C5.58177 19.7415 5.29063 20.2639 4.94469 20.7324C4.7469 21.0003 4.54801 21.2283 4.39833 21.3895C4.32375 21.4698 4.26206 21.5327 4.21973 21.5749C4.19858 21.596 4.18232 21.6119 4.17174 21.6221L4.16028 21.6331Z"></path></svg>