<svg xmlns="http://www.w3.org/2000/svg" fill="none" viewBox="0 0 14 14" height="48" width="48"><g id="polaroid--photos-polaroid-picture-camera-photography-photo-pictures-image"><path id="Subtract" fill="#000000" fill-rule="evenodd" d="M10 9C10 9.69036 9.44036 10.25 8.75 10.25H1.25C0.559645 10.25 0 9.69036 0 9V1.25C0 0.559645 0.559645 0 1.25 0H8.75C9.44036 0 10 0.559645 10 1.25V9ZM12.0085 3.76515C11.6084 3.65795 11.1971 3.89538 11.0899 4.29548C10.9827 4.69558 11.2201 5.10683 11.6202 5.21404L12.4352 5.43242L10.5588 12.4354L5.12545 10.9795C4.72535 10.8723 4.3141 11.1098 4.20689 11.5099C4.09969 11.91 4.33712 12.3212 4.73722 12.4284L10.412 13.949C11.0789 14.1277 11.7643 13.7319 11.943 13.0651L13.9488 5.57917C14.1275 4.91234 13.7318 4.22691 13.0649 4.04824L12.0085 3.76515ZM8.5 1.5V7H1.5V1.5H8.5Z" clip-rule="evenodd"></path></g></svg>