<svg xmlns="http://www.w3.org/2000/svg" fill="none" viewBox="0 0 14 14" height="48" width="48"><g id="user-square-single--square-geometric-human-person-single-user"><path id="Union" fill="#000000" fill-rule="evenodd" d="M12.2897 12.4885C11.633 10.1859 9.51337 8.49997 7 8.49997C4.48663 8.49997 2.36702 10.1858 1.7103 12.4885C1.73614 12.496 1.76345 12.5 1.79169 12.5H12.2083C12.2366 12.5 12.2639 12.496 12.2897 12.4885ZM1.79166 3.05176e-05C0.802154 3.05176e-05 0 0.802185 0 1.79169V1.79169L3.17693e-05 12.2083C3.17693e-05 13.1978 0.802186 14 1.79169 14H12.2083C13.1978 14 14 13.1978 14 12.2083L14 1.79169C14 0.802185 13.1978 3.05176e-05 12.2083 3.05176e-05H1.79166ZM7.00012 7.49997C8.38083 7.49997 9.50012 6.38068 9.50012 4.99997C9.50012 3.61926 8.38083 2.49997 7.00012 2.49997C5.61941 2.49997 4.50012 3.61926 4.50012 4.99997C4.50012 6.38068 5.61941 7.49997 7.00012 7.49997Z" clip-rule="evenodd"></path></g></svg>